# xmcd
#
# Track frame offsets:
#	150
#	23700
#	49687
#
# Disc length: 973 seconds
#
# Revision: 0
# Processed by: cddbd v1.5.1PL2 Copyright (c) Steve Scherf et al.
# Submitted via: audiograbber 1.83.01
#
DISCID=1a03cb03
DTITLE=my little lover - hello, again
DYEAR=1995
DGENRE=JPop
TTITLE0=hello, again
TTITLE1=delicacy
TTITLE2=hello, again (instrumental version)
EXTD=
EXTT0=
EXTT1=
EXTT2=
PLAYORDER=
